# xmcd
#
# Track frame offsets:
#	182
#	16085
#	44182
#	64205
#	74497
#	87090
#	104370
#	120635
#	161762
#	172960
#	204337
#	243137
#
# Disc length: 3760 seconds
# Revision: 7
# Processed by: cddbd v1.5.2PL0 Copyright (c) Steve Scherf et al.
# Submitted via: dBpowerAMP V12.0
#
DISCID=9f0eae0c
DTITLE=Jessye Norman / Diva
DYEAR=1995
DGENRE=Classical
TTITLE0=Wagner: Tannhauser - Dich, teure Halle, grüß' ich wieder
TTITLE1=wagner: Tannhäuser - Allmächt'ge Jungfrau, hör' mein Flehen
TTITLE2=Offenbach: Les Contes d'Hoffmann - Belle nuit, o nuit d'amour
TTITLE3=Offenbach: Les Contes d'Hoffmann - Vénus dit à Fortune
TTITLE4=Offenbach: Les Contes d'Hoffmann - Qui connait donc la souffrance
TTITLE5=Offenbach: Les Contes d'Hoffmann꞉ - Jusque-là cependant affermis mon courage
TTITLE6=Offenbach: La Belle Helene - Amours divins
TTITLE7=Offenbach: La Belle Helene - C'est le ciel qui m'envoie
TTITLE8=Offenbach: La Belle Helene - Là, vrai, je ne suis pas coupable
TTITLE9=Berlioz: Romeo et Juliette - Premiers transports que nul n'oublie!
TTITLE10=Wagner: Der fliegende Holländer - Johohoe! Traft ihr das Schiff
TTITLE11=Wagner: Tristan und Isolde - Mild und leise, wie er lächelt
EXTD=
EXTT0=
EXTT1=
EXTT2=
EXTT3=
EXTT4=
EXTT5=
EXTT6=
EXTT7=
EXTT8=
EXTT9=
EXTT10=
EXTT11=
PLAYORDER=
